# xmcd
#
# Track frame offsets:
#	150
#	16930
#	34432
#	55415
#	74791
#	95338
#	125892
#	151640
#	200489
#	217858
#	234812
#	260043
#	277695
#	296227
#
# Disc length: 4051 seconds
#
# Revision: 1
# Processed by: cddbd v1.5.2PL0 Copyright (c) Steve Scherf et al.
# Submitted via: audiograbber 1.83.01
#
DISCID=cf0fd10e
DTITLE=King Robinson and the Housewreckers - Hit The Big Time
DYEAR=2006
DGENRE=Blues
TTITLE0=Ice Cream Man
TTITLE1=Done Got Tired of You
TTITLE2=300 Pounds of Joy
TTITLE3=So Sorry Darlin'
TTITLE4=Memory Pain
TTITLE5=Five Long Years
TTITLE6=I'm Worried
TTITLE7=Crawlin' Kingsnake
TTITLE8=Funky Bitch
TTITLE9=Everyday I Have the Blues
TTITLE10=Who's Been Talkin'
TTITLE11=Doin' The Best I Can
TTITLE12=Reconsider Baby
TTITLE13=Kingpickin'
EXTD=
EXTT0=
EXTT1=
EXTT2=
EXTT3=
EXTT4=
EXTT5=
EXTT6=
EXTT7=
EXTT8=
EXTT9=
EXTT10=
EXTT11=
EXTT12=
EXTT13=
PLAYORDER=
